<svg xmlns="http://www.w3.org/2000/svg" version="1.0" viewBox="0 0 894 362">
    <defs />
    <path d="M688 26l-6 4c-4 3-4 3-4 8l1 6c2 0 1 3-1 5v4l1 6c1 5 2 6 7 7 2 0 4 1 5 3v4l-7 5c-6 4-6 5-7 10 0 4-1 5-4 8-7 6-9 12-4 20l2 11c0 7-1 10-7 23-5 9-5 10-4 12l1 7c0 11 6 47 11 64 4 13 5 28 6 56 0 25 0 26-2 29l-8 6c-9 4-7 7 4 7 5 0 7-1 12-6l5-4 2 4c0 6 3 5 3 0l2-8c2-4 2-7 2-28a425 425 0 00-4-65l3 8 8 23a554 554 0 0118 69c1 1 1 7-1 13-2 7 0 8 6 7 9-2 10-3 10-10l1-11a597 597 0 00-13-69c-9-28-10-34-11-52-1-25-1-31 1-31s1-4-4-13c-6-11-6-15-2-27 3-10 5-14 6-14 2 0 3 14 3 34l1 22-1 5c-2 5-3 14-1 15l1-3 2-4c2 0 2 4 1 7v4c1 1 7-4 9-7 2-4 2-4 1-10-1-4-2-7-1-8l1-24c0-18 0-24-2-35l-3-20-2-9c-1-3-12-12-15-12-1 0-3-3-3-7 0-2 1-3 3-4 4-2 5-6 5-15-1-10-3-14-8-17-5-4-13-5-19-3zM94 79c-28 2-45 8-58 21a53 53 0 00-16 42c0 18 6 33 19 45 10 10 21 15 52 26 23 8 26 10 34 15 9 5 16 13 19 21s3 26 0 34c-5 14-15 23-29 28-8 2-10 2-21 2-9 0-15 0-21-2-10-3-25-10-31-14l-4-4-3-17-3-17H20v57l10 3c45 14 96 11 121-6a78 78 0 0018-94c-10-17-26-27-64-41l-25-9c-12-5-23-14-27-23-2-5-2-7-2-15 0-11 1-16 7-23 5-5 17-10 27-13 9-2 31-1 40 1l21 10 7 30 6 1h6V86l-5-1c-21-4-52-7-66-6zM263 158a84 84 0 00-56 139c11 13 26 23 44 27 11 3 29 3 40 0a85 85 0 00-28-166zm30 10c13 4 22 10 32 20s14 16 18 28a76 76 0 01-18 81 68 68 0 01-54 22c-15 0-16-1-24-4a77 77 0 018-149c10-2 28-1 38 2z" />
    <path d="M268 178c-1 1-1 6 2 6 3 2 6-2 4-6-1-2-4-3-6 0zM312 196c-2 1-2 5 0 6h4c2-3 3-7 0-7-2-1-1-1-4 1zM224 197c0 4 3 6 6 5 4-2 2-7-3-7-2 0-3 0-3 2zM268 206l-1 19v18l20 21a484 484 0 0025 21c4-1 3-3-17-23l-20-21v-17l-1-18c0-1-1-2-3-2s-3 1-3 2zM207 240l-2 2c0 2 3 4 5 4 4 0 6-5 2-7-3-1-4-1-5 1zM330 239c-3 2-2 7 2 7 2 0 5-2 5-4 0-3-5-5-7-3zM226 283c-4 4-1 9 4 5 2-1 3-5 0-6-2-1-2-1-4 1zM269 301c-3 3-2 7 2 7 2 0 4-3 4-5l-4-4-2 2zM357 160v4l10 1 10 1v139h-3l-9 2c-7 1-7 1-7 4v3h66v-3c0-2 0-3-4-3l-13-2-8-1v-52h16c26-1 37-5 46-16 8-11 12-22 12-34 0-4-1-7-5-15-8-17-16-24-32-28-7-2-11-2-43-3h-36v3zm66 9c19 3 26 12 26 34 1 28-11 39-39 39h-11v-74h8l16 1zM490 158l-1 3c0 3 0 3 10 4l10 1v139h-3l-10 2c-7 1-7 1-7 4v3h63v-2c0-3-1-4-8-5l-9-2h-3v-66h73v66l-7 1c-14 2-13 2-13 5v3h62v-3c0-3 1-3-13-5l-7-1v-69l1-69 9-2 10-1v-7h-62v7l10 1 9 2 1 30v31h-73v-31l1-30 9-2 10-1v-6l-31-1-31 1zM741 158l-1 3c0 3 0 3 10 4l9 1 1 70v69h-3l-10 2c-7 1-7 1-7 4v3h125v-17l2-21c0-3 0-3-4-3l-4 1-4 15-3 13h-3l-35 2h-31v-64h42l1 10 2 9h7l1-24v-24h-4c-4 0-4 0-5 5l-2 9v4h-42v-61h22l31 1 9 1 1 4 2 12 1 9h8v-38h-58l-58 1z" />
</svg>